<svg xmlns="http://www.w3.org/2000/svg" viewBox="0 0 32.59 56.56"><defs><style>.cls-1{fill:#4d4d4d;}</style></defs><g id="Layer_2" data-name="Layer 2"><g id="Layer_1-2" data-name="Layer 1"><path class="cls-1" d="M10.63,28.28c.95,1,1.18,1.3,1.74,1.86L30,47.73c.35.35.72.68,1.05,1.05,2,2.19,2,4.76.13,6.62a4.87,4.87,0,0,1-6.67-.34c-3.52-3.49-7-7-10.49-10.51C9.86,40.43,5.83,36.24,1.6,32.25a5.51,5.51,0,0,1,0-7.73C9.27,17,16.82,9.33,24.44,1.73c2.14-2.13,4.9-2.29,6.77-.5s1.84,4.65-.39,6.9q-9.36,9.4-18.77,18.76Z"/></g></g></svg>