<?xml version="1.0" encoding="UTF-8" standalone="no"?>
<!-- Created with Inkscape (http://www.inkscape.org/) -->

<svg
   width="81.786728mm"
   height="92.784424mm"
   viewBox="0 0 81.786728 92.784424"
   version="1.1"
   id="svg5"
   inkscape:version="1.2.2 (732a01da63, 2022-12-09)"
   sodipodi:docname="UAV.svg"
   xmlns:inkscape="http://www.inkscape.org/namespaces/inkscape"
   xmlns:sodipodi="http://sodipodi.sourceforge.net/DTD/sodipodi-0.dtd"
   xmlns="http://www.w3.org/2000/svg"
   xmlns:svg="http://www.w3.org/2000/svg">
  <sodipodi:namedview
     id="namedview7"
     pagecolor="#ffffff"
     bordercolor="#000000"
     borderopacity="0.25"
     inkscape:showpageshadow="2"
     inkscape:pageopacity="0.0"
     inkscape:pagecheckerboard="0"
     inkscape:deskcolor="#d1d1d1"
     inkscape:document-units="mm"
     showgrid="false"
     inkscape:zoom="1.3826038"
     inkscape:cx="183.71134"
     inkscape:cy="303.77466"
     inkscape:window-width="1920"
     inkscape:window-height="974"
     inkscape:window-x="-11"
     inkscape:window-y="-11"
     inkscape:window-maximized="1"
     inkscape:current-layer="layer1" />
  <defs
     id="defs2">
    <clipPath
       clipPathUnits="userSpaceOnUse"
       id="clipPath623">
      <path
         id="lpe_path-effect627"
         style="fill:#ff0000;stroke-width:0.363074"
         class="powerclip"
         d="M 69.423897,60.493027 H 125.4314 V 120.56002 H 69.423897 Z M 119.61951,56.685383 A 21.853561,14.884779 0 0 0 97.765945,41.800604 21.853561,14.884779 0 0 0 75.912384,56.685383 21.853561,14.884779 0 0 0 97.765945,71.570162 21.853561,14.884779 0 0 0 119.61951,56.685383 Z" />
    </clipPath>
    <clipPath
       clipPathUnits="userSpaceOnUse"
       id="clipPath623-2">
      <path
         id="lpe_path-effect627-5"
         style="fill:#ff0000;stroke-width:0.363074"
         class="powerclip"
         d="M 69.423897,60.493027 H 125.4314 V 120.56002 H 69.423897 Z M 119.61951,56.685383 A 21.853561,14.884779 0 0 0 97.765945,41.800604 21.853561,14.884779 0 0 0 75.912384,56.685383 21.853561,14.884779 0 0 0 97.765945,71.570162 21.853561,14.884779 0 0 0 119.61951,56.685383 Z" />
    </clipPath>
    <clipPath
       clipPathUnits="userSpaceOnUse"
       id="clipPath623-2-8">
      <path
         id="lpe_path-effect627-5-6"
         style="fill:#ff0000;stroke-width:0.363074"
         class="powerclip"
         d="M 69.423897,60.493027 H 125.4314 V 120.56002 H 69.423897 Z M 119.61951,56.685383 A 21.853561,14.884779 0 0 0 97.765945,41.800604 21.853561,14.884779 0 0 0 75.912384,56.685383 21.853561,14.884779 0 0 0 97.765945,71.570162 21.853561,14.884779 0 0 0 119.61951,56.685383 Z" />
    </clipPath>
    <clipPath
       clipPathUnits="userSpaceOnUse"
       id="clipPath623-2-8-4">
      <path
         id="lpe_path-effect627-5-6-8"
         style="fill:#ff0000;stroke-width:0.363074"
         class="powerclip"
         d="M 69.423897,60.493027 H 125.4314 V 120.56002 H 69.423897 Z M 119.61951,56.685383 A 21.853561,14.884779 0 0 0 97.765945,41.800604 21.853561,14.884779 0 0 0 75.912384,56.685383 21.853561,14.884779 0 0 0 97.765945,71.570162 21.853561,14.884779 0 0 0 119.61951,56.685383 Z" />
    </clipPath>
  </defs>
  <g
     inkscape:label="Layer 1"
     inkscape:groupmode="layer"
     id="layer1"
     transform="translate(-37.61744,-36.32281)">
    <g
       id="g2431"
       inkscape:export-filename="..\Documents\GitHub\website24\content\UAV.svg"
       inkscape:export-xdpi="96"
       inkscape:export-ydpi="96">
      <circle
         style="fill:#ff9f6e;fill-opacity:1;stroke-width:0.3345"
         id="path919"
         cx="45.706535"
         cy="43.882732"
         r="7.5" />
      <g
         id="g865"
         transform="matrix(0.84076089,0,0,1,-3.5792108,-7.8460051)"
         style="fill:#ff9f6e;fill-opacity:1">
        <rect
           style="fill:#ff9f6e;fill-opacity:1;stroke-width:0.186608"
           id="rect271-1"
           width="121.30816"
           height="10.727751"
           x="-193.8448"
           y="-0.38835976"
           ry="5.3638754"
           transform="rotate(-135)" />
        <rect
           style="fill:#ff9f6e;fill-opacity:1;stroke-width:0.186608"
           id="rect271-1-7"
           width="121.30816"
           height="10.727751"
           x="-65.49659"
           y="-138.68759"
           ry="5.3638754"
           transform="rotate(135)" />
        <path
           id="rect537"
           clip-path="url(#clipPath623)"
           style="fill:#ff9f6e;fill-opacity:1;stroke-width:0.249671"
           d="m 79.565523,65.49297 c -1.046363,0 -2.017388,0.310612 -2.827735,0.843359 v 7.792806 c 0,2.84841 2.292879,5.141288 5.141289,5.141288 h 31.052363 c 2.84841,0 5.14129,-2.292878 5.14129,-5.141288 v -7.821228 c -0.80133,-0.515058 -1.75544,-0.814937 -2.78277,-0.814937 z"
           transform="matrix(0.97685179,0,0,1,2.3504405,0.52916663)" />
        <path
           id="rect537-9"
           clip-path="url(#clipPath623-2)"
           style="fill:#ff9f6e;fill-opacity:1;stroke-width:0.249671"
           d="m 79.565523,65.49297 c -1.046363,0 -2.017388,0.310612 -2.827735,0.843359 v 7.792806 c 0,2.84841 2.292879,5.141288 5.141289,5.141288 h 31.052363 c 2.84841,0 5.14129,-2.292878 5.14129,-5.141288 v -7.821228 c -0.80133,-0.515058 -1.75544,-0.814937 -2.78277,-0.814937 z"
           transform="matrix(1,0,0,-1,0.14645919,181.21236)" />
        <path
           id="rect537-9-3"
           clip-path="url(#clipPath623-2-8)"
           style="fill:#ff9f6e;fill-opacity:1;stroke-width:0.249671"
           d="m 79.565523,65.49297 c -1.046363,0 -2.017388,0.310612 -2.827735,0.843359 v 7.792806 c 0,2.84841 2.292879,5.141288 5.141289,5.141288 h 31.052363 c 2.84841,0 5.14129,-2.292878 5.14129,-5.141288 v -7.821228 c -0.80133,-0.515058 -1.75544,-0.814937 -2.78277,-0.814937 z"
           transform="matrix(0,1.0277779,1,0,6.461087,-9.696368)" />
        <path
           id="rect537-9-3-2"
           clip-path="url(#clipPath623-2-8-4)"
           style="fill:#ff9f6e;fill-opacity:1;stroke-width:0.249671"
           d="m 79.565523,65.49297 c -1.046363,0 -2.017388,0.310612 -2.827735,0.843359 v 7.792806 c 0,2.84841 2.292879,5.141288 5.141289,5.141288 h 31.052363 c 2.84841,0 5.14129,-2.292878 5.14129,-5.141288 v -7.821228 c -0.80133,-0.515058 -1.75544,-0.814937 -2.78277,-0.814937 z"
           transform="matrix(0,1.0277779,-1,0,188.73221,-9.7862301)" />
        <rect
           style="fill:#ff9f6e;fill-opacity:1;stroke-width:0.264583"
           id="rect804"
           width="32.723583"
           height="32.914948"
           x="81.330544"
           y="73.484535"
           ry="5.1415386" />
      </g>
      <circle
         style="fill:#ff9f6e;fill-opacity:1;stroke-width:0.3345"
         id="path919-0"
         cx="111.0372"
         cy="43.822811"
         r="7.5" />
      <circle
         style="fill:#ff9f6e;fill-opacity:1;stroke-width:0.3345"
         id="path919-3"
         cx="45.117439"
         cy="121.5174"
         r="7.5" />
      <circle
         style="fill:#ff9f6e;fill-opacity:1;stroke-width:0.3345"
         id="path919-4"
         cx="111.90417"
         cy="121.60725"
         r="7.5" />
    </g>
  </g>
</svg>
