<svg xmlns="http://www.w3.org/2000/svg" viewBox="0 0 32.59 56.56"><defs><style>.cls-1{fill:#4d4d4d;}</style></defs><g id="Layer_2" data-name="Layer 2"><g id="Layer_1-2" data-name="Layer 1"><path class="cls-1" d="M22,28.28c-1-1-1.19-1.29-1.75-1.85Q11.43,17.63,2.63,8.84c-.35-.35-.71-.69-1-1.06-2-2.19-2-4.75-.14-6.62C3.12-.5,6.23-.37,8.13,1.51c3.51,3.48,7,7,10.48,10.51,4.11,4.11,8.14,8.31,12.37,12.3A5.49,5.49,0,0,1,31,32c-7.7,7.52-15.25,15.2-22.88,22.79-2.13,2.13-4.9,2.3-6.76.5s-1.84-4.65.39-6.89Q11.12,39,20.54,29.68Z"/></g></g></svg>